# xmcd CD database file
#
# Track frame offsets:
#	150
#	16745
#	36000
#	56244
#	72819
#	91172
#	107342
#	123735
#	141222
#	156372
#	172722
#	188984
#	209443
#	230994
#	254354
#	273309
#	290579
#
# Disc length: 4145 seconds
#
# Revision: 2
# Processed by: cddbd v1.5.1PL0 Copyright (c) Steve Scherf et al.
# Submitted via: CDex 1.51
#
DISCID=f6102f11
DTITLE=Queen - Queen Greatest Hits(2001 Remaster Released In Japan)
DYEAR=2001
DGENRE=Rock
TTITLE0=Bohemian Rhapsody
TTITLE1=Another One Bites The Dust
TTITLE2=Killer Queen
TTITLE3=Fat Bottomed Girls
TTITLE4=Bicycle Race
TTITLE5=You're My Best Friend
TTITLE6=Don't Stop Me Now
TTITLE7=Save Me
TTITLE8=Crazy Little Thing Called Love
TTITLE9=Somebody To Love
TTITLE10=Now I'm Here
TTITLE11=Good Old-Fashioned Lover Boy
TTITLE12=Play The Game
TTITLE13=Flash
TTITLE14=Seven Seas Of Rhye
TTITLE15=We Will Rock You
TTITLE16=We Are The Champions
EXTD=YEAR: 2001
EXTT0=
EXTT1=
EXTT2=
EXTT3=
EXTT4=
EXTT5=
EXTT6=
EXTT7=
EXTT8=
EXTT9=
EXTT10=
EXTT11=
EXTT12=
EXTT13=
EXTT14=
EXTT15=
EXTT16=
PLAYORDER=
